<svg width="40" height="40" viewBox="0 0 40 40" fill="none" xmlns="http://www.w3.org/2000/svg">
<path d="M15.5477 20.6716C15.7067 20.0493 16.0915 19.9968 16.6346 20.0895C17.7341 20.2882 18.8339 20.4603 19.9334 20.6325C20.9401 20.8047 20.9798 20.8047 20.7811 21.8513C20.4233 23.6531 20.3441 25.4553 20.6355 27.2438C21.2981 31.3374 23.7757 32.8346 27.7635 31.6423C30.0554 30.9533 31.7644 29.5089 33.076 27.5349C33.7119 26.5678 33.7252 26.5679 34.785 27.111C35.7255 27.5879 36.6662 28.1044 37.6199 28.5681C38.163 28.833 38.296 29.1114 37.9783 29.6677C34.4939 35.8018 28.1079 38.0541 23.1131 37.0075C19.9466 36.3451 17.7739 34.5301 16.449 31.6286C16.343 31.3901 16.2371 31.1381 16.1443 30.8864C16.0384 30.6613 15.9714 30.4232 15.8787 30.1716C15.2165 30.2777 14.925 30.7814 14.5408 31.0993C11.2817 33.7754 7.57208 35.0863 3.35918 35.0466C2.5775 35.0333 2.20657 34.8614 2.25957 33.987C2.3258 32.6224 2.27226 31.2442 2.27226 29.8796C3.59713 29.7338 4.82946 29.7207 6.00859 29.4558C10.341 28.5018 13.203 25.7597 15.0711 21.8513C15.2566 21.4671 15.4549 21.0823 15.5477 20.6716ZM34.7322 8.02021C36.1364 8.88128 37.3553 9.63632 38.574 10.3649C39.0377 10.6432 39.1179 10.8953 38.8396 11.3854C36.8391 14.8301 34.8648 18.2746 32.8113 21.8649C31.4335 21.017 30.1347 20.2224 28.823 19.4274C28.4786 19.2155 28.4261 18.9637 28.6248 18.6325C28.7837 18.3544 28.9424 18.0761 29.1014 17.8112C30.9562 14.5918 32.8112 11.3721 34.7322 8.02021ZM5.23906 7.70283C5.875 7.3981 6.07438 7.70285 6.29961 8.19306C7.83644 11.5184 9.37287 14.8309 10.9627 18.2888C9.47893 18.9512 8.154 19.5075 6.86894 20.1169C6.27283 20.4083 5.95488 20.3818 5.65019 19.6931C4.15313 16.3545 2.5896 13.0423 0.999802 9.61103C2.45705 8.96189 3.87453 8.3652 5.23906 7.70283ZM18.6346 3.83369C18.8333 2.69434 18.8462 2.66802 19.9324 2.80048C21.35 2.98597 22.7682 3.21099 24.3846 3.43622C23.6691 7.3446 22.9802 11.0941 22.3045 14.8435C22.119 15.837 21.9199 16.8172 21.7742 17.8239C21.6815 18.4201 21.4561 18.6326 20.8201 18.5134C19.7338 18.3014 18.6072 18.1954 17.5076 18.0231C16.2097 17.8112 16.1834 17.7977 16.3953 16.5261C16.8458 13.9161 17.3222 11.3059 17.7859 8.69599C18.0774 7.07966 18.3431 5.45002 18.6346 3.83369Z" fill="#0C0D0E"/>
</svg>
